<svg class="icon" style="width: 1em;height: 1em;vertical-align: middle;fill: currentColor;overflow: hidden;" viewBox="0 0 1024 1024" version="1.1" xmlns="http://www.w3.org/2000/svg" p-id="580"><path d="M837.8 884.4c-18 0-35.2-10.6-42.8-28.2l-0.1-0.1-101.5-236.5H334.5L228.7 856.8c-10.5 23.5-38 34-61.5 23.5s-34-38-23.5-61.5l289-647.6c10.1-22.7 28.5-40.1 51.7-49 23.2-8.9 48.5-8.2 71.2 1.9 21.4 9.6 38.4 26.7 47.6 48.3l277.4 647c10.1 23.6-0.8 51-24.4 61.1-6 2.6-12.2 3.9-18.4 3.9zM376.1 526.5h277.7l-136-317.3-141.7 317.3z" p-id="581"></path></svg>